# xmcd
#
# Track frame offsets:
#	150
#	17675
#	38470
#	57805
#	83630
#	104777
#	126940
#	142462
#	166290
#	185267
#	213334
#	237580
#
# Disc length: 3439 seconds
#
# Revision: 1
# Processed by: cddbd v1.5.2PL0 Copyright (c) Steve Scherf et al.
# Submitted via: EasyCDDAExtractor 12.1.0.1
#
DISCID=a70d6d0c
DTITLE=김광석 - Best [CD2)
DYEAR=2005
DGENRE=Country
TTITLE0=나의 노래
TTITLE1=말하지 못한 내사랑
TTITLE2=잊어야 한다는 마음으로
TTITLE3=거리에서
TTITLE4=서른즈음에
TTITLE5=자유롭게
TTITLE6=먼지가 되어
TTITLE7=외사랑
TTITLE8=슬픈노래
TTITLE9=너무 아픈 사랑은 사랑이 아니었음을
TTITLE10=나무
TTITLE11=일어나
EXTD=YEAR: 2005
EXTT0=
EXTT1=
EXTT2=
EXTT3=
EXTT4=
EXTT5=
EXTT6=
EXTT7=
EXTT8=
EXTT9=
EXTT10=
EXTT11=
PLAYORDER=
